<svg width="24" height="24" viewBox="0 0 24 24" fill="none" xmlns="http://www.w3.org/2000/svg">
<path d="M6.6 19.2C5.52543 19.1986 4.49227 18.7854 3.71313 18.0454C2.93398 17.3053 2.46811 16.2948 2.41138 15.2218C2.35465 14.1487 2.71138 13.0947 3.40816 12.2766C4.10494 11.4586 5.08877 10.9387 6.1572 10.824C5.8426 9.5903 6.03098 8.28212 6.68091 7.18728C7.33084 6.09244 8.38907 5.30063 9.6228 4.98603C10.8565 4.67143 12.1647 4.85981 13.2595 5.50974C14.3544 6.15967 15.1462 7.2179 15.4608 8.45163C16.1945 8.34947 16.9414 8.39937 17.6551 8.59823C18.3687 8.79709 19.0338 9.14066 19.6089 9.60757C20.1841 10.0745 20.657 10.6547 20.9983 11.3122C21.3396 11.9698 21.542 12.6905 21.5928 13.4295C21.6436 14.1686 21.5418 14.9102 21.2938 15.6083C21.0457 16.3063 20.6566 16.9459 20.1508 17.4871C19.645 18.0283 19.0332 18.4597 18.3535 18.7544C17.6739 19.0491 16.9408 19.2008 16.2 19.2H6.6Z" fill="#296399"/>
</svg>
